<?xml version="1.0" encoding="utf-8"?>
<!-- Generator: Adobe Illustrator 20.1.0, SVG Export Plug-In . SVG Version: 6.00 Build 0)  -->
<svg version="1.1" id="Layer_1" xmlns="http://www.w3.org/2000/svg" xmlns:xlink="http://www.w3.org/1999/xlink" x="0px" y="0px"
	 viewBox="0 0 48 60" style="enable-background:new 0 0 48 60;" xml:space="preserve">
<style type="text/css">
	.st0{fill:#FFFFFF;}
</style>
<title>Png 48px Solid - 70 Basic Icons</title>
<g>
	<ellipse class="st0" cx="19.5" cy="43.5" rx="4" ry="4"/>
	<ellipse class="st0" cx="34.6" cy="43.5" rx="4" ry="4"/>
	<path class="st0" d="M41.3,29.3c0.5,0,0.9-0.3,1-0.7L48,8.4c0.2-0.5-0.1-1.1-0.7-1.2c-0.1,0-0.2,0-0.3,0H11C11,7.1,11,7,10.9,7
		L9,1.8C8.8,1.1,8.2,0.7,7.6,0.5l0,0H1.9C0.8,0.6,0,1.5,0,2.5c0,1.1,0.8,1.9,1.9,2h4l1,2.5l6,21.5c0,0.2,0.1,0.3,0.2,0.4l-2.4,5.8
		c-0.4,0.9,0.1,2,1,2.4l0,0h0.1c0.2,0.1,0.5,0.2,0.8,0.2h28c1.1,0,2-0.9,2-2s-0.9-2-2-2H15.3l1.7-4L41.3,29.3L41.3,29.3z"/>
</g>
</svg>
